<?xml version="1.0" encoding="utf-8"?>
<!-- Generator: Adobe Illustrator 27.5.0, SVG Export Plug-In . SVG Version: 6.00 Build 0)  -->
<svg version="1.1" xmlns="http://www.w3.org/2000/svg" xmlns:xlink="http://www.w3.org/1999/xlink" x="0px" y="0px"
	 viewBox="0 0 800 800" style="enable-background:new 0 0 800 800;" xml:space="preserve">
<style type="text/css">
	.st0{display:none;}
	.st1{display:inline;fill:none;stroke:#509685;stroke-width:12;stroke-miterlimit:10;}
	.st2{display:inline;fill:none;stroke:#509685;stroke-width:12;stroke-linecap:round;stroke-miterlimit:10;}
	.st3{display:inline;fill:none;stroke:#509685;stroke-width:10;stroke-miterlimit:10;}
	.st4{fill:none;stroke:#349F89;stroke-width:17;stroke-miterlimit:10;}
	.st5{fill:none;stroke:#349F89;stroke-width:17;stroke-linecap:round;stroke-miterlimit:10;}
	.st6{opacity:0.7;fill:none;stroke:#349F89;stroke-width:17;stroke-miterlimit:10;}
	.st7{fill:#349F89;stroke:#349F89;stroke-width:17;stroke-miterlimit:10;}
</style>
<g id="Calque_2_00000020382786575470546090000013748251380717715358_" class="st0">
	<path class="st1" d="M642,240H158v360.8c0,18.8,15.2,34,34,34h416c18.8,0,34-15.2,34-34V240z"/>
	<line class="st2" x1="252" y1="634.7" x2="192.8" y2="713.2"/>
	<line class="st2" x1="545.8" y1="634.7" x2="603.4" y2="713.2"/>
	<line class="st1" x1="216.2" y1="682.1" x2="580.6" y2="682.1"/>
	<path class="st3" d="M451.6,194H344.8c-11.9,0-21.6-9.7-21.6-21.6v-9.7c0-11.9,9.7-21.6,21.6-21.6h106.8c11.9,0,21.6,9.7,21.6,21.6
		v9.7C473.1,184.3,463.5,194,451.6,194z"/>
	<line class="st1" x1="158" y1="430.4" x2="642" y2="430.4"/>
	<circle class="st3" cx="268.9" cy="527" r="37.2"/>
	<circle class="st3" cx="530.5" cy="527" r="37.2"/>
	<path class="st1" d="M158,240v-43.4c0-7.1,1.5-14.1,4.6-20.5c13.3-27.8,62.6-91.8,235.6-89.3c168.1,2.4,221.6,60.3,237.5,87.8
		c4.2,7.2,6.3,15.4,6.3,23.8V240"/>
</g>
<g id="Calque_4">
	<path class="st4" d="M652.8,584.3l-0.2-0.2L536.8,472.6c24.1-34.8,38.2-76.9,38.2-122.4c0-118.9-96.4-215.2-215.2-215.2
		s-215.2,96.4-215.2,215.2c0,118.9,96.4,215.2,215.2,215.2c45.8,0,88.2-14.3,123-38.6L592.1,638l0,0l3.8,3.8
		c7.4,6.6,17.3,10.6,28.2,10.6c22.9,0,41.4-17.8,41.4-39.7C665.5,601.7,660.6,591.5,652.8,584.3z M352.9,198.4
		c-1.9,0-3.4-1.5-3.4-3.4c0-1.9,1.5-3.5,3.4-3.5s3.5,1.6,3.5,3.5C356.3,196.8,354.8,198.4,352.9,198.4z"/>
	<path class="st4" d="M356.3,194.9c0,1.9-1.5,3.4-3.5,3.4s-3.4-1.5-3.4-3.4c0-1.9,1.5-3.5,3.4-3.5S356.3,193,356.3,194.9z"/>
	<path class="st5" d="M390.3,198.4c70.7,14.2,123.9,76.6,123.9,151.4c0,85.3-69.2,154.5-154.5,154.5s-154.5-69.2-154.5-154.5
		c0-70.7,47.5-130.4,112.4-148.7"/>
	<path class="st6" d="M390.3,198.4"/>
	<path class="st6" d="M359.7,195.4"/>
	<path class="st6" d="M317.7,201.1"/>
	<path class="st4" d="M595.9,641.9c-1.3-1.2-2.6-2.5-3.8-3.8L595.9,641.9z"/>
	<line class="st5" x1="300.5" y1="290.2" x2="413.9" y2="405.2"/>
	<line class="st5" x1="417.4" y1="290.2" x2="300.5" y2="405.2"/>
	<path class="st7" d="M356.3,194.9c0,1.9-1.5,3.4-3.5,3.4s-3.4-1.5-3.4-3.4c0-1.9,1.5-3.5,3.4-3.5S356.3,193,356.3,194.9z"/>
</g>
<g id="Calque_3" class="st0">
</g>
</svg>
