<?xml version="1.0" encoding="utf-8"?>
<!-- Generator: Adobe Illustrator 27.5.0, SVG Export Plug-In . SVG Version: 6.00 Build 0)  -->
<svg version="1.1" id="Calque_2" xmlns="http://www.w3.org/2000/svg" xmlns:xlink="http://www.w3.org/1999/xlink" x="0px" y="0px"
	 viewBox="0 0 800 800" style="enable-background:new 0 0 800 800;" xml:space="preserve">
<style type="text/css">
	.st0{fill:none;stroke:#509685;stroke-width:12;stroke-miterlimit:10;}
	.st1{fill:none;stroke:#509685;stroke-width:12;stroke-linecap:round;stroke-miterlimit:10;}
	.st2{fill:none;stroke:#509685;stroke-width:10;stroke-miterlimit:10;}
</style>
<path class="st0" d="M642,240H158v360.8c0,18.8,15.2,34,34,34H608c18.8,0,34-15.2,34-34V240z"/>
<line class="st1" x1="252" y1="634.7" x2="192.8" y2="713.2"/>
<line class="st1" x1="545.8" y1="634.7" x2="603.4" y2="713.2"/>
<line class="st0" x1="216.2" y1="682.1" x2="580.6" y2="682.1"/>
<path class="st2" d="M451.6,194H344.8c-11.9,0-21.6-9.7-21.6-21.6v-9.7c0-11.9,9.7-21.6,21.6-21.6h106.8c11.9,0,21.6,9.7,21.6,21.6
	v9.7C473.1,184.3,463.5,194,451.6,194z"/>
<line class="st0" x1="158" y1="430.4" x2="642" y2="430.4"/>
<circle class="st2" cx="268.9" cy="527" r="37.2"/>
<circle class="st2" cx="530.5" cy="527" r="37.2"/>
<path class="st0" d="M158,240v-43.4c0-7.1,1.5-14.1,4.6-20.5c13.3-27.8,62.6-91.8,235.6-89.3c168.1,2.4,221.6,60.3,237.5,87.8
	c4.2,7.2,6.3,15.4,6.3,23.8l0,41.6"/>
</svg>
